<svg width="32" height="32" viewBox="0 0 32 32" fill="none" xmlns="http://www.w3.org/2000/svg">
<rect width="32" height="32" rx="8" fill="#EDF2F7"/>
<g clip-path="url(#clip0_28_311)">
<path d="M14.3333 16C14.3333 16.4421 14.5089 16.866 14.8215 17.1786C15.134 17.4911 15.558 17.6667 16 17.6667C16.442 17.6667 16.8659 17.4911 17.1785 17.1786C17.4911 16.866 17.6666 16.4421 17.6666 16C17.6666 15.558 17.4911 15.1341 17.1785 14.8215C16.8659 14.509 16.442 14.3334 16 14.3334C15.558 14.3334 15.134 14.509 14.8215 14.8215C14.5089 15.1341 14.3333 15.558 14.3333 16Z" stroke="#212121" stroke-opacity="0.75" stroke-width="1.5" stroke-linecap="round" stroke-linejoin="round"/>
<path d="M23.5 16C21.5 19.3333 19 21 16 21C13 21 10.5 19.3333 8.5 16C10.5 12.6667 13 11 16 11C19 11 21.5 12.6667 23.5 16Z" stroke="#212121" stroke-opacity="0.75" stroke-width="1.5" stroke-linecap="round" stroke-linejoin="round"/>
</g>
<defs>
<clipPath id="clip0_28_311">
<rect width="20" height="20" fill="white" transform="translate(6 6)"/>
</clipPath>
</defs>
</svg>
