<svg width="43" height="43" viewBox="0 0 43 43" fill="none" xmlns="http://www.w3.org/2000/svg">
<rect width="43" height="43" rx="12" fill="#EDF2F7"/>
<g clip-path="url(#clip0_28_251)">
<path d="M23 11.9999C23.132 11.9999 23.263 11.9999 23.393 11.9999C22.1084 13.1937 21.2826 14.7998 21.0593 16.5392C20.836 18.2785 21.2293 20.0412 22.1708 21.5207C23.1122 23.0002 24.5424 24.103 26.2126 24.6374C27.8829 25.1718 29.6876 25.1041 31.313 24.4459C30.6878 25.9504 29.6658 27.257 28.3562 28.2262C27.0466 29.1954 25.4985 29.791 23.8769 29.9493C22.2554 30.1077 20.6213 29.8229 19.1489 29.1253C17.6765 28.4278 16.4211 27.3436 15.5166 25.9885C14.6121 24.6334 14.0924 23.0582 14.0129 21.4309C13.9334 19.8036 14.2972 18.1852 15.0654 16.7485C15.8336 15.3117 16.9774 14.1104 18.3748 13.2727C19.7722 12.435 21.3708 11.9923 23 11.9919V11.9999Z" stroke="#212121" stroke-opacity="0.75" stroke-width="1.5" stroke-linecap="round" stroke-linejoin="round"/>
</g>
<defs>
<clipPath id="clip0_28_251">
<rect width="24" height="24" fill="white" transform="translate(11 9)"/>
</clipPath>
</defs>
</svg>
