<svg width="32" height="32" viewBox="0 0 32 32" fill="none" xmlns="http://www.w3.org/2000/svg">
<rect width="32" height="32" rx="8" fill="#EDF2F7"/>
<g clip-path="url(#clip0_28_300)">
<path d="M22.25 16.4767L16 22.6667L9.75003 16.4767C9.33778 16.0755 9.01306 15.5934 8.79632 15.0606C8.57957 14.5277 8.4755 13.9558 8.49064 13.3808C8.50579 12.8058 8.63983 12.2401 8.88432 11.7195C9.12882 11.1988 9.47847 10.7344 9.91127 10.3555C10.3441 9.97661 10.8506 9.69143 11.399 9.51793C11.9475 9.34442 12.5259 9.28635 13.0978 9.34736C13.6698 9.40837 14.2229 9.58716 14.7224 9.87245C15.2219 10.1577 15.6569 10.5434 16 11.005C16.3446 10.5467 16.7801 10.1645 17.2793 9.8822C17.7784 9.59993 18.3304 9.42373 18.9008 9.36463C19.4712 9.30552 20.0476 9.36477 20.594 9.53869C21.1404 9.7126 21.645 9.99742 22.0763 10.3753C22.5076 10.7532 22.8562 11.2161 23.1004 11.7349C23.3445 12.2538 23.479 12.8174 23.4953 13.3906C23.5116 13.9638 23.4094 14.5342 23.1951 15.0661C22.9809 15.5979 22.6591 16.0799 22.25 16.4817" stroke="#212121" stroke-opacity="0.75" stroke-width="1.5" stroke-linecap="round" stroke-linejoin="round"/>
</g>
<defs>
<clipPath id="clip0_28_300">
<rect width="20" height="20" fill="white" transform="translate(6 6)"/>
</clipPath>
</defs>
</svg>
