<svg width="32" height="32" viewBox="0 0 32 32" fill="none" xmlns="http://www.w3.org/2000/svg">
<rect width="32" height="32" rx="8" fill="#EDF2F7"/>
<g clip-path="url(#clip0_28_306)">
<path d="M12.6667 13.5H19.3334" stroke="#212121" stroke-opacity="0.75" stroke-width="1.5" stroke-linecap="round" stroke-linejoin="round"/>
<path d="M12.6667 16.8334H17.6667" stroke="#212121" stroke-opacity="0.75" stroke-width="1.5" stroke-linecap="round" stroke-linejoin="round"/>
<path d="M13.5 21H11C10.337 21 9.70107 20.7366 9.23223 20.2678C8.76339 19.799 8.5 19.1631 8.5 18.5V11.8334C8.5 11.1703 8.76339 10.5344 9.23223 10.0656C9.70107 9.59677 10.337 9.33337 11 9.33337H21C21.663 9.33337 22.2989 9.59677 22.7678 10.0656C23.2366 10.5344 23.5 11.1703 23.5 11.8334V18.5C23.5 19.1631 23.2366 19.799 22.7678 20.2678C22.2989 20.7366 21.663 21 21 21H18.5L16 23.5L13.5 21Z" stroke="#212121" stroke-opacity="0.75" stroke-width="1.5" stroke-linecap="round" stroke-linejoin="round"/>
</g>
<defs>
<clipPath id="clip0_28_306">
<rect width="20" height="20" fill="white" transform="translate(6 6)"/>
</clipPath>
</defs>
</svg>
