<svg width="36" height="36" viewBox="0 0 36 36" fill="none" xmlns="http://www.w3.org/2000/svg">
<g filter="url(#filter0_d_28_341)">
<path d="M18 24C23.5228 24 28 19.5228 28 14C28 8.47715 23.5228 4 18 4C12.4772 4 8 8.47715 8 14C8 19.5228 12.4772 24 18 24Z" fill="#FF3A62"/>
</g>
<path fill-rule="evenodd" clip-rule="evenodd" d="M19.2593 15.4481H18.4605L19.489 16.6641H18.9047L17.376 14.9657H17.7717H18.7989C20.0912 14.9657 21.1381 13.9536 21.1381 12.713C21.1381 12.1787 20.9434 11.683 20.6188 11.2976C20.2276 10.7156 20.6794 10.289 21.0804 10.289C20.9787 9.83456 20.4232 9.80055 20.4232 9.80055C20.3613 9.62156 20.2041 9.35718 19.8989 9.35718H19.1009C19.0904 9.35718 19.0801 9.35874 19.0701 9.36026C19.0616 9.36156 19.0532 9.36283 19.0449 9.36312C18.6525 9.40509 18.272 9.69155 18.6521 10.2558L18.6523 10.256C18.662 10.2695 19.1957 11.0103 19.1957 11.772C19.1957 13.0709 18.0997 14.2118 16.7468 14.2118H14.2556H13.7752H11.2143C11.2143 14.634 11.5466 14.9657 11.9566 14.9657H13.5727H16.6049L18.0385 16.6641H13.5727V17.9189H22.9043V16.6641H20.3557L19.2593 15.4481ZM18.1483 13.238C18.5404 12.8434 18.7653 12.3103 18.7653 11.7772C18.7653 11.1344 18.2913 10.4685 18.2864 10.4619L18.2835 10.457L18.2803 10.4517C18.1748 10.2961 18.1151 10.1588 18.0866 10.033L14.5179 13.8633H16.6808C17.2286 13.8633 17.7498 13.639 18.1483 13.238ZM11.9222 17.9188H13.102V16.6516H11.9222V17.9188ZM23.4117 17.9286V16.6616L24.4286 17.2677L23.4117 17.9286ZM19.5468 10.1907C19.6636 10.1907 19.7581 10.1 19.7581 9.988C19.7581 9.87598 19.6636 9.78522 19.5468 9.78522C19.4301 9.78522 19.3356 9.87598 19.3356 9.988C19.3356 10.1 19.4301 10.1907 19.5468 10.1907Z" fill="white"/>
<defs>
<filter id="filter0_d_28_341" x="0" y="0" width="36" height="36" filterUnits="userSpaceOnUse" color-interpolation-filters="sRGB">
<feFlood flood-opacity="0" result="BackgroundImageFix"/>
<feColorMatrix in="SourceAlpha" type="matrix" values="0 0 0 0 0 0 0 0 0 0 0 0 0 0 0 0 0 0 127 0" result="hardAlpha"/>
<feOffset dy="4"/>
<feGaussianBlur stdDeviation="4"/>
<feColorMatrix type="matrix" values="0 0 0 0 0 0 0 0 0 0 0 0 0 0 0 0 0 0 0.08 0"/>
<feBlend mode="normal" in2="BackgroundImageFix" result="effect1_dropShadow_28_341"/>
<feBlend mode="normal" in="SourceGraphic" in2="effect1_dropShadow_28_341" result="shape"/>
</filter>
</defs>
</svg>
